<svg xmlns="http://www.w3.org/2000/svg" xmlns:xlink="http://www.w3.org/1999/xlink" version="1.1" width="256" height="256" viewBox="0 0 256 256" xml:space="preserve">

<defs>
</defs>
<g style="stroke: none; stroke-width: 0; stroke-dasharray: none; stroke-linecap: butt; stroke-linejoin: miter; stroke-miterlimit: 10; fill: none; fill-rule: nonzero; opacity: 1;" transform="translate(1.4065934065934016 1.4065934065934016) scale(2.81 2.81)" >
	<path d="M 90 23.452 v -3.892 c 0 -6.074 -4.942 -11.016 -11.017 -11.016 H 68.522 V 4.284 c 0 -1.657 -1.343 -3 -3 -3 s -3 1.343 -3 3 v 4.261 H 27.477 V 4.284 c 0 -1.657 -1.343 -3 -3 -3 s -3 1.343 -3 3 v 4.261 H 11.016 C 4.942 8.545 0 13.487 0 19.561 v 3.892 H 90 z" style="stroke: none; stroke-width: 1; stroke-dasharray: none; stroke-linecap: butt; stroke-linejoin: miter; stroke-miterlimit: 10; fill: rgb(0,0,0); fill-rule: nonzero; opacity: 1;" transform=" matrix(1 0 0 1 0 0) " stroke-linecap="round" />
	<path d="M 0 29.452 V 75.7 c 0 6.074 4.942 11.016 11.016 11.016 h 67.967 C 85.058 86.716 90 81.775 90 75.7 V 29.452 H 0 z M 25.779 72.18 h -7.376 c -1.657 0 -3 -1.343 -3 -3 s 1.343 -3 3 -3 h 7.376 c 1.657 0 3 1.343 3 3 S 27.436 72.18 25.779 72.18 z M 25.779 58.816 h -7.376 c -1.657 0 -3 -1.343 -3 -3 s 1.343 -3 3 -3 h 7.376 c 1.657 0 3 1.343 3 3 S 27.436 58.816 25.779 58.816 z M 25.779 45.452 h -7.376 c -1.657 0 -3 -1.343 -3 -3 s 1.343 -3 3 -3 h 7.376 c 1.657 0 3 1.343 3 3 S 27.436 45.452 25.779 45.452 z M 48.688 72.18 h -7.375 c -1.657 0 -3 -1.343 -3 -3 s 1.343 -3 3 -3 h 7.375 c 1.657 0 3 1.343 3 3 S 50.345 72.18 48.688 72.18 z M 48.688 58.816 h -7.375 c -1.657 0 -3 -1.343 -3 -3 s 1.343 -3 3 -3 h 7.375 c 1.657 0 3 1.343 3 3 S 50.345 58.816 48.688 58.816 z M 48.688 45.452 h -7.375 c -1.657 0 -3 -1.343 -3 -3 s 1.343 -3 3 -3 h 7.375 c 1.657 0 3 1.343 3 3 S 50.345 45.452 48.688 45.452 z M 71.597 72.18 h -7.376 c -1.657 0 -3 -1.343 -3 -3 s 1.343 -3 3 -3 h 7.376 c 1.657 0 3 1.343 3 3 S 73.254 72.18 71.597 72.18 z M 71.597 58.816 h -7.376 c -1.657 0 -3 -1.343 -3 -3 s 1.343 -3 3 -3 h 7.376 c 1.657 0 3 1.343 3 3 S 73.254 58.816 71.597 58.816 z M 71.597 45.452 h -7.376 c -1.657 0 -3 -1.343 -3 -3 s 1.343 -3 3 -3 h 7.376 c 1.657 0 3 1.343 3 3 S 73.254 45.452 71.597 45.452 z" style="stroke: none; stroke-width: 1; stroke-dasharray: none; stroke-linecap: butt; stroke-linejoin: miter; stroke-miterlimit: 10; fill: rgb(0,0,0); fill-rule: nonzero; opacity: 1;" transform=" matrix(1 0 0 1 0 0) " stroke-linecap="round" />
</g>
</svg>